<svg width="16" height="16" viewBox="0 0 16 16" fill="none" xmlns="http://www.w3.org/2000/svg">
<path d="M10.8278 11.7713C11.0881 12.0317 11.5102 12.0317 11.7706 11.7713C12.0309 11.511 12.0309 11.0889 11.7706 10.8285L8.94215 8.00011L11.7706 5.17168C12.0309 4.91134 12.0309 4.48923 11.7706 4.22888C11.5102 3.96853 11.0881 3.96853 10.8278 4.22888L7.99934 7.0573L5.17091 4.22886C4.91056 3.96851 4.48845 3.96851 4.2281 4.22886C3.96775 4.48921 3.96775 4.91132 4.2281 5.17167L7.05653 8.00011L4.2281 10.8285C3.96775 11.0889 3.96775 11.511 4.2281 11.7713C4.48845 12.0317 4.91056 12.0317 5.17091 11.7713L7.99934 8.94291L10.8278 11.7713Z" fill="#292929"/>
</svg>
